<?xml version="1.0" encoding="UTF-8" standalone="no"?>
<!-- Created with Inkscape (http://www.inkscape.org/) -->

<svg
   width="234.66696mm"
   height="208.10236mm"
   viewBox="0 0 234.66696 208.10236"
   version="1.1"
   id="svg1246"
   sodipodi:docname="Athena Docs.svg"
   inkscape:version="1.2 (dc2aedaf03, 2022-05-15)"
   xmlns:inkscape="http://www.inkscape.org/namespaces/inkscape"
   xmlns:sodipodi="http://sodipodi.sourceforge.net/DTD/sodipodi-0.dtd"
   xmlns="http://www.w3.org/2000/svg"
   xmlns:svg="http://www.w3.org/2000/svg">
  <sodipodi:namedview
     id="namedview1248"
     pagecolor="#6e6e6e"
     bordercolor="#000000"
     borderopacity="0.25"
     inkscape:showpageshadow="2"
     inkscape:pageopacity="0"
     inkscape:pagecheckerboard="0"
     inkscape:deskcolor="#d1d1d1"
     inkscape:document-units="mm"
     showgrid="false"
     inkscape:zoom="0.70710678"
     inkscape:cx="359.21025"
     inkscape:cy="439.11331"
     inkscape:window-width="1920"
     inkscape:window-height="1051"
     inkscape:window-x="-9"
     inkscape:window-y="-9"
     inkscape:window-maximized="1"
     inkscape:current-layer="g1094" />
  <defs
     id="defs1243">
    <inkscape:perspective
       sodipodi:type="inkscape:persp3d"
       inkscape:vp_x="0 : 103.48992 : 1"
       inkscape:vp_y="0 : 1000.0001 : 0"
       inkscape:vp_z="236.53784 : 103.48992 : 1"
       inkscape:persp3d-origin="118.26892 : 68.619106 : 1"
       id="perspective2525" />
    <rect
       x="-214.96046"
       y="869.74133"
       width="415.77878"
       height="138.59293"
       id="rect1481" />
  </defs>
  <g
     inkscape:label="Layer 1"
     inkscape:groupmode="layer"
     id="layer1"
     transform="translate(130.48788,96.881754)">
    <g
       id="g1094"
       inkscape:label="Background"
       transform="matrix(0.26458333,0,0,0.26458333,15.985334,-47.916674)"
       style="display:inline;fill:#ffffff;fill-opacity:1">
      <path
         style="display:inline;fill:#ffffff;fill-opacity:1;stroke-width:0.178814"
         d="m -16.556727,51.382623 -1.24697,-16.946005 -26.41315,-10.366408 4.30772,11.573456 14.23816,4.094495 0.55547,41.844312 -7.39115,-19.04058 -13.97743,-15.798123 -0.22672,-37.1226292 7.5952,-12.614832 13.30068,-7.9592348 8.64108,-1.004131 -5.57241,-37.229876 10.11452,-8.2556 9.9493028,8.33599 -5.5724,37.229876 8.64108002,1.004132 L 13.686935,-2.9133022 21.282128,9.7015298 21.055411,46.824164 7.0779758,62.622283 -0.31317423,81.662873 0.24229582,39.818549 14.480462,35.724054 18.788186,24.150599 -7.6249642,34.517006 l -1.24698,16.946007 -3.8423928,2.77585 z"
         id="path1086"
         inkscape:label="Spartan Helmet"
         sodipodi:nodetypes="ccccccccccccccccccccccccccccc"
         transform="matrix(3.7795276,0,0,3.7795276,-60.41701,181.10239)" />
      <g
         aria-label="6390"
         transform="matrix(3.7795276,0,0,3.7795276,-60.41701,181.10239)"
         id="text1092"
         style="font-size:35.2777px;line-height:0;display:inline;stroke-width:0.264583"
         inkscape:label="Team Number">
        <path
           d="m -36.629217,90.885857 -3.13503,0.516763 q 0.206706,-1.136879 0.206706,-1.946475 0,-3.16948 -2.997227,-3.16948 -2.15318,0 -3.031677,1.705318 -0.861272,1.688093 -1.274682,6.649019 2.153179,-1.877572 4.478614,-1.877572 3.031677,0 5.029828,2.118729 1.998151,2.118729 1.998151,5.339881 0,3.87573 -2.359885,6.20116 -2.34266,2.32544 -6.252835,2.32544 -10.059656,0 -10.059656,-11.782203 0,-5.736071 2.876648,-9.146708 2.893874,-3.410637 7.751448,-3.410637 6.838499,0 6.838499,5.391562 0,0.465087 -0.0689,1.085203 z m -7.751447,4.289134 q -2.704394,0 -2.704394,5.443239 0,6.25283 2.549365,6.25283 2.480463,0 2.480463,-6.61456 0,-5.081509 -2.325434,-5.081509 z"
           style="font-family:'Britannic Bold';-inkscape-font-specification:'Britannic Bold, '"
           id="path6817" />
        <path
           d="m -32.150603,100.56655 3.152256,-0.17225 q -0.396185,1.36081 -0.447862,2.42879 -0.172254,3.77237 3.979077,3.77237 4.082429,0 4.082429,-4.5992 0,-4.650864 -4.874799,-4.650864 l -1.860348,0.03445 v -2.773295 l 1.343584,0.01723 q 5.133181,0 5.133181,-4.340811 0,-3.772371 -3.634567,-3.772371 -3.582892,0 -3.582892,3.32451 0,0.809596 0.206706,1.877573 l -3.152256,-0.654567 q 0,-6.666245 7.751448,-6.666245 8.940002,0 8.940002,6.097806 0,3.996301 -5.047053,5.426013 5.718845,1.309133 5.718845,5.925555 0,6.87295 -9.525667,6.87295 -8.474916,0 -8.474916,-5.6844 0,-1.06798 0.292832,-2.46324 z"
           style="font-family:'Britannic Bold';-inkscape-font-specification:'Britannic Bold, '"
           id="path6819" />
        <path
           d="m -9.8608863,102.39245 3.1178044,-0.62012 q -0.1722544,1.03353 -0.1722544,1.8259 0,3.23838 3.0661281,3.23838 2.1187289,0 2.94555,-1.63641 0.8440465,-1.65365 1.25745703,-6.683474 -2.15317983,1.963704 -4.40971233,1.963704 -3.100579,0 -5.0815044,-2.153184 -1.9809251,-2.170405 -1.9809251,-5.546591 0,-3.772371 2.3771102,-6.063354 2.394336,-2.308209 6.3045106,-2.308209 9.973529,0 9.973529,11.988905 0,5.736073 -2.8766483,9.026133 -2.8766483,3.29006 -7.8720255,3.29006 -6.7006957,0 -6.7006957,-5.01261 0,-0.46508 0.051676,-1.30913 z m 7.9581527,-16.105785 q -2.5149141,0 -2.5149141,6.49399 0,5.28821 2.2048562,5.28821 2.80774647,0 2.80774647,-5.684395 0,-6.097805 -2.49768857,-6.097805 z"
           style="font-family:'Britannic Bold';-inkscape-font-specification:'Britannic Bold, '"
           id="path6821" />
        <path
           d="m 19.904676,84.443543 q 9.835726,0 9.835726,12.126709 0,12.126708 -9.835726,12.126708 -9.852951,0 -9.852951,-12.126708 0,-12.126709 9.852951,-12.126709 z m 0,1.877573 q -2.687168,0 -2.687168,10.249136 0,10.249138 2.687168,10.249138 2.669943,0 2.669943,-10.249138 0,-10.249136 -2.669943,-10.249136 z"
           style="font-family:'Britannic Bold';-inkscape-font-specification:'Britannic Bold, '"
           id="path6823" />
      </g>
      <path
         style="display:inline;fill:#ffffff;fill-opacity:1;stroke-width:0.264583"
         d="m -32.980009,-47.636144 c -1.03771,1.80625 -3.03776,2.417768 -6.25533,1.028274 l -14.20731,-6.135367 9.42584,57.3091195 c 0.95716,5.8195505 -6.19037,6.9730705 -8.70605,5.05567 l -27.09501,-20.6511595 -7.22646,11.90616953 c -1.13643,1.87235997 -3.3572,2.40673997 -7.0309,2.21444997 l -24.482751,-1.28154 6.68328,28.7992605 c 0.73263,4.05563 -1.17634,10.56296 -7.54433,12.80115 l 52.300341,39.578993 c 1.85787,1.40597 3.33552,6.66221 2.42633,9.10854 l -6.45008,17.355174 -4.99702,1.72504 5.07905,-19.842594 c 0.92738,-3.62305 -2.38841,-6.16867 -6.59764,-9.2536 l -52.829831,-38.718813 11.78413,-6.78316 c 2.072,-1.19268 1.49694,-4.47789 0.97148,-6.68428 l -8.19901,-34.4274505 34.391091,1.33468 10.60836,-16.8808195 31.25951,24.7471095 -11.70518,-66.9406095 22.89623,11.002529 c 8.71332,-15.005364 16.51768,-30.825471 25.34107,-45.612376 L 12.172471,-51.226408 35.068698,-62.228937 23.363515,4.7116725 54.62303,-20.035437 65.231388,-3.1546175 99.62248,-4.4892975 91.42347,29.938153 c -0.52546,2.20639 -1.10052,5.4916 0.97148,6.68428 l 11.78413,6.78316 -52.829829,38.718813 c -4.20923,3.08493 -7.525028,5.63055 -6.597645,9.2536 L 49.830659,111.2206 44.83364,109.49556 38.383556,92.140386 c -0.909185,-2.44633 0.568463,-7.70257 2.426335,-9.10854 L 93.1102,43.452853 c -6.36798,-2.23819 -8.27695,-8.74552 -7.54432,-12.80115 l 6.68327,-28.7992615 -24.482738,1.28154 c -3.673703,0.19229 -5.894477,-0.34209 -7.030905,-2.21444997 L 53.509048,-10.986638 26.41404,9.6645215 c -2.515687,1.9174005 -9.663213,0.7638805 -8.706051,-5.05567 l 9.425842,-57.3091195 -14.207312,6.135367 c -3.2175742,1.389494 -5.2700222,0.807087 -6.2553322,-1.028274 L -13.150439,-84.515391"
         id="path1477"
         sodipodi:nodetypes="cscsscsscccssccsscsscccccccccccccsscssccsscccsscsscssc"
         inkscape:label="Canadian Leaf"
         transform="matrix(3.7795276,0,0,3.7795276,-60.41701,181.10239)" />
    </g>
  </g>
</svg>
