<?xml version="1.0" encoding="UTF-8" standalone="no"?>
<!-- Created with Inkscape (http://www.inkscape.org/) -->

<svg
   width="234.66696mm"
   height="208.10236mm"
   viewBox="0 0 234.66696 208.10236"
   version="1.1"
   id="svg1246"
   sodipodi:docname="Athena Docs.svg"
   inkscape:version="1.2 (dc2aedaf03, 2022-05-15)"
   xmlns:inkscape="http://www.inkscape.org/namespaces/inkscape"
   xmlns:sodipodi="http://sodipodi.sourceforge.net/DTD/sodipodi-0.dtd"
   xmlns="http://www.w3.org/2000/svg"
   xmlns:svg="http://www.w3.org/2000/svg">
  <sodipodi:namedview
     id="namedview1248"
     pagecolor="#ffffff"
     bordercolor="#000000"
     borderopacity="0.25"
     inkscape:showpageshadow="2"
     inkscape:pageopacity="0.0"
     inkscape:pagecheckerboard="0"
     inkscape:deskcolor="#d1d1d1"
     inkscape:document-units="mm"
     showgrid="false"
     inkscape:zoom="0.70710678"
     inkscape:cx="387.49452"
     inkscape:cy="438.40621"
     inkscape:window-width="1920"
     inkscape:window-height="1051"
     inkscape:window-x="-9"
     inkscape:window-y="-9"
     inkscape:window-maximized="1"
     inkscape:current-layer="layer1" />
  <defs
     id="defs1243">
    <inkscape:perspective
       sodipodi:type="inkscape:persp3d"
       inkscape:vp_x="0 : 103.48992 : 1"
       inkscape:vp_y="0 : 1000.0001 : 0"
       inkscape:vp_z="236.53784 : 103.48992 : 1"
       inkscape:persp3d-origin="118.26892 : 68.619106 : 1"
       id="perspective2525" />
    <rect
       x="-214.96046"
       y="869.74133"
       width="415.77878"
       height="138.59293"
       id="rect1481" />
  </defs>
  <g
     inkscape:label="Layer 1"
     inkscape:groupmode="layer"
     id="layer1"
     transform="translate(130.48788,96.881754)">
    <g
       id="g1094"
       inkscape:label="Background"
       transform="matrix(0.26458333,0,0,0.26458333,15.985334,-47.916674)"
       style="display:inline;fill:#ffffff;fill-opacity:1">
      <path
         style="display:inline;fill:#ffffff;fill-opacity:1;stroke-width:0.178814"
         d="m -16.556727,51.382623 -1.24697,-16.946005 -26.41315,-10.366408 4.30772,11.573456 14.23816,4.094495 0.55547,41.844312 -7.39115,-19.04058 -13.97743,-15.798123 -0.22672,-37.1226292 7.5952,-12.614832 13.30068,-7.9592348 8.64108,-1.004131 -5.57241,-37.229876 10.11452,-8.2556 9.9493028,8.33599 -5.5724,37.229876 8.64108002,1.004132 L 13.686935,-2.9133022 21.282128,9.7015298 21.055411,46.824164 7.0779758,62.622283 -0.31317423,81.662873 0.24229582,39.818549 14.480462,35.724054 18.788186,24.150599 -7.6249642,34.517006 l -1.24698,16.946007 -3.8423928,2.77585 z"
         id="path1086"
         inkscape:label="Spartan Helmet"
         sodipodi:nodetypes="ccccccccccccccccccccccccccccc"
         transform="matrix(3.7795276,0,0,3.7795276,-60.41701,181.10239)" />
      <text
         xml:space="preserve"
         style="font-size:35.2777px;line-height:0;display:inline;fill:#ffffff;fill-opacity:1;stroke-width:0.264583"
         x="-55.628876"
         y="108.318"
         id="text1092"
         inkscape:label="Team Number"
         transform="matrix(3.7795276,0,0,3.7795276,-60.41701,181.10239)"><tspan
           sodipodi:role="line"
           id="tspan1090"
           x="-55.628876"
           y="108.318"
           style="font-style:normal;font-variant:normal;font-weight:normal;font-stretch:normal;font-size:35.2777px;font-family:'Britannic Bold';-inkscape-font-specification:'Britannic Bold, ';fill:#ffffff;fill-opacity:1;stroke-width:0.264583">6390</tspan></text>
      <path
         style="display:inline;fill:#ffffff;fill-opacity:1;stroke-width:0.264583"
         d="m -32.980009,-47.636144 c -1.03771,1.80625 -3.03776,2.417768 -6.25533,1.028274 l -14.20731,-6.135367 9.42584,57.3091195 c 0.95716,5.8195505 -6.19037,6.9730705 -8.70605,5.05567 l -27.09501,-20.6511595 -7.22646,11.90616953 c -1.13643,1.87235997 -3.3572,2.40673997 -7.0309,2.21444997 l -24.482751,-1.28154 6.68328,28.7992605 c 0.73263,4.05563 -1.17634,10.56296 -7.54433,12.80115 l 52.300341,39.578993 c 1.85787,1.40597 3.33552,6.66221 2.42633,9.10854 l -6.45008,17.355174 -4.99702,1.72504 5.07905,-19.842594 c 0.92738,-3.62305 -2.38841,-6.16867 -6.59764,-9.2536 l -52.829831,-38.718813 11.78413,-6.78316 c 2.072,-1.19268 1.49694,-4.47789 0.97148,-6.68428 l -8.19901,-34.4274505 34.391091,1.33468 10.60836,-16.8808195 31.25951,24.7471095 -11.70518,-66.9406095 22.89623,11.002529 c 8.71332,-15.005364 16.51768,-30.825471 25.34107,-45.612376 L 12.172471,-51.226408 35.068698,-62.228937 23.363515,4.7116725 54.62303,-20.035437 65.231388,-3.1546175 99.62248,-4.4892975 91.42347,29.938153 c -0.52546,2.20639 -1.10052,5.4916 0.97148,6.68428 l 11.78413,6.78316 -52.829829,38.718813 c -4.20923,3.08493 -7.525028,5.63055 -6.597645,9.2536 L 49.830659,111.2206 44.83364,109.49556 38.383556,92.140386 c -0.909185,-2.44633 0.568463,-7.70257 2.426335,-9.10854 L 93.1102,43.452853 c -6.36798,-2.23819 -8.27695,-8.74552 -7.54432,-12.80115 l 6.68327,-28.7992615 -24.482738,1.28154 c -3.673703,0.19229 -5.894477,-0.34209 -7.030905,-2.21444997 L 53.509048,-10.986638 26.41404,9.6645215 c -2.515687,1.9174005 -9.663213,0.7638805 -8.706051,-5.05567 l 9.425842,-57.3091195 -14.207312,6.135367 c -3.2175742,1.389494 -5.2700222,0.807087 -6.2553322,-1.028274 L -13.150439,-84.515391"
         id="path1477"
         sodipodi:nodetypes="cscsscsscccssccsscsscccccccccccccsscssccsscccsscsscssc"
         inkscape:label="Canadian Leaf"
         transform="matrix(3.7795276,0,0,3.7795276,-60.41701,181.10239)" />
    </g>
  </g>
</svg>
